<?xml version="1.0" encoding="UTF-8"?>
<svg xmlns="http://www.w3.org/2000/svg" width="1920" height="1080" viewBox="0 0 1920 1080" role="img" aria-label="Abstract medical-tech background">
  <defs>
    <linearGradient id="bg" x1="0" y1="0" x2="1" y2="1">
      <stop offset="0" stop-color="#05070b"/>
      <stop offset="0.45" stop-color="#07111d"/>
      <stop offset="1" stop-color="#0b0f14"/>
    </linearGradient>

    <radialGradient id="glowRed" cx="62%" cy="38%" r="55%">
      <stop offset="0" stop-color="#ff2e2e" stop-opacity="0.55"/>
      <stop offset="0.45" stop-color="#ff2e2e" stop-opacity="0.18"/>
      <stop offset="1" stop-color="#ff2e2e" stop-opacity="0"/>
    </radialGradient>

    <radialGradient id="glowTeal" cx="28%" cy="62%" r="60%">
      <stop offset="0" stop-color="#22c55e" stop-opacity="0.35"/>
      <stop offset="0.5" stop-color="#22c55e" stop-opacity="0.10"/>
      <stop offset="1" stop-color="#22c55e" stop-opacity="0"/>
    </radialGradient>

    <filter id="softBlur" x="-20%" y="-20%" width="140%" height="140%">
      <feGaussianBlur stdDeviation="22"/>
    </filter>

    <filter id="grain" x="-10%" y="-10%" width="120%" height="120%">
      <feTurbulence type="fractalNoise" baseFrequency="0.8" numOctaves="2" stitchTiles="stitch"/>
      <feColorMatrix type="matrix" values="0 0 0 0 0  0 0 0 0 0  0 0 0 0 0  0 0 0 0.12 0"/>
    </filter>

    <linearGradient id="stroke" x1="0" y1="0" x2="1" y2="0">
      <stop offset="0" stop-color="#ef4444" stop-opacity="0.2"/>
      <stop offset="0.5" stop-color="#ffffff" stop-opacity="0.18"/>
      <stop offset="1" stop-color="#22c55e" stop-opacity="0.18"/>
    </linearGradient>

    <filter id="pathGlow" x="-20%" y="-20%" width="140%" height="140%">
      <feGaussianBlur stdDeviation="2" result="blur"/>
      <feColorMatrix in="blur" type="matrix" values="1 0 0 0 0  0 1 0 0 0  0 0 1 0 0  0 0 0 0.75 0" result="glow"/>
      <feMerge>
        <feMergeNode in="glow"/>
        <feMergeNode in="SourceGraphic"/>
      </feMerge>
    </filter>

    <!-- A smooth "circuit/brainwave" curve template -->
    <path id="wave" d="M 0 540 C 220 430, 360 730, 560 610 C 770 480, 920 250, 1140 400 C 1320 520, 1500 820, 1920 560"/>
  </defs>

  <!-- Base -->
  <rect width="1920" height="1080" fill="url(#bg)"/>

  <!-- Ambient glows -->
  <g filter="url(#softBlur)">
    <circle cx="1180" cy="400" r="520" fill="url(#glowRed)"/>
    <circle cx="520" cy="720" r="620" fill="url(#glowTeal)"/>
  </g>

  <!-- Abstract "brain lobes" blobs -->
  <g filter="url(#softBlur)" opacity="0.85">
    <path d="M1220,160 C1400,140 1580,260 1600,420 C1620,600 1480,740 1300,760 C1110,780 960,640 940,470 C920,290 1040,180 1220,160 Z" fill="#111827"/>
    <path d="M1080,240 C1190,210 1320,270 1350,380 C1385,510 1290,610 1160,630 C1030,650 920,560 900,450 C875,330 970,265 1080,240 Z" fill="#0f172a"/>
  </g>

  <!-- Circuit-like lines -->
  <g fill="none" stroke="url(#stroke)" stroke-width="2" stroke-linecap="round" filter="url(#pathGlow)" opacity="0.85">
    <use href="#wave"/>
    <use href="#wave" transform="translate(0,-130) scale(1,0.95)" opacity="0.55"/>
    <use href="#wave" transform="translate(0,150) scale(1,1.05)" opacity="0.45"/>

    <path d="M 240 210 C 420 140, 520 280, 700 220 S 1040 170, 1180 250 S 1500 420, 1680 320" opacity="0.45"/>
    <path d="M 200 860 C 420 760, 580 980, 760 900 S 1080 760, 1220 840 S 1520 980, 1720 860" opacity="0.35"/>

    <!-- Nodes -->
    <circle cx="560" cy="610" r="6"/>
    <circle cx="1140" cy="400" r="6"/>
    <circle cx="760" cy="900" r="5" opacity="0.6"/>
    <circle cx="1180" cy="250" r="5" opacity="0.6"/>
  </g>

  <!-- Subtle vignette -->
  <radialGradient id="vignette" cx="50%" cy="50%" r="70%">
    <stop offset="0" stop-color="#000" stop-opacity="0"/>
    <stop offset="1" stop-color="#000" stop-opacity="0.55"/>
  </radialGradient>
  <rect width="1920" height="1080" fill="url(#vignette)"/>

  <!-- Grain overlay -->
  <rect width="1920" height="1080" filter="url(#grain)" opacity="0.35"/>
</svg>
